<?xml version="1.0" encoding="UTF-8"?>
<svg viewBox="0 0 711 191" version="1.1" xmlns="http://www.w3.org/2000/svg" xmlns:xlink="http://www.w3.org/1999/xlink">
    <g id="Page-1" stroke="none" stroke-width="1" fill="none" fill-rule="evenodd">
        <g id="Logo" fill="#136CFA">
            <path d="M36.8891455,3.13 L91.02,3.13 C103.620063,3.13 114.599953,5.92194467 123.96,11.5059178 C133.320047,17.0898909 140.609974,24.5650976 145.83,33.9317621 C151.050026,43.2984267 153.66,53.8357662 153.66,65.5440969 C153.66,77.0722994 151.050026,87.5646076 145.83,97.0213363 C140.609974,106.478065 133.275047,113.953272 123.825,119.447181 C114.374953,124.94109 103.350063,127.688003 90.75,127.688003 L52.95,127.688003 L52.95,160.13 C52.95,175.041688 40.8616882,187.13 25.95,187.13 L25.95,187.1 L0.981524249,187.1 L0.981524249,161.714319 C9.19711575,161.572671 14.6504869,160.297857 17.3418014,157.889838 C20.0331158,155.48182 21.3787529,150.595033 21.3787529,143.22933 L21.3787529,131.746651 C21.9925522,115.767192 22.9132605,106.597061 24.1408776,104.236259 C25.9823033,100.695055 29.3818074,97.5788433 34.3394919,94.8875289 C29.5234555,92.3378625 26.1593629,89.1862389 24.2471132,85.4325635 C22.3348634,81.6788881 21.3787529,76.4733974 21.3787529,69.8159353 L21.3787529,47.6080831 C21.3787529,39.817436 20.0331158,34.6827684 17.3418014,32.2039261 C14.6504869,29.7250838 9.19711575,28.4856813 0.981524249,28.4856813 L0.981524249,3.1 L36.8891455,3.1 L36.8891455,3.13 Z M52.95,102.22 L86.16,102.22 C98.0400594,102.22 107.579964,98.9800324 114.78,92.5 C121.980036,86.0199676 125.58,77.0200576 125.58,65.5 C125.58,53.2599388 122.025036,44.0350311 114.915,37.825 C107.804964,31.614969 98.3100594,28.51 86.43,28.51 L52.95,28.51 L52.95,102.22 Z M231.44,189.7 C218.119933,189.7 206.375051,186.865028 196.205,181.195 C186.034949,175.524972 178.160028,167.560051 172.58,157.3 C166.999972,147.039949 164.21,135.070068 164.21,121.39 C164.21,107.529931 166.999972,95.4700513 172.58,85.21 C178.160028,74.9499487 186.034949,66.9400288 196.205,61.18 C206.375051,55.4199712 218.119933,52.54 231.44,52.54 C244.940068,52.54 256.72995,55.4199712 266.81,61.18 C276.89005,66.9400288 284.764972,74.9499487 290.435,85.21 C296.105028,95.4700513 298.94,107.529931 298.94,121.39 C298.94,135.070068 296.105028,147.039949 290.435,157.3 C284.764972,167.560051 276.89005,175.524972 266.81,181.195 C256.72995,186.865028 244.940068,189.7 231.44,189.7 Z M231.44,163.78 C243.50006,163.78 253.174964,159.865039 260.465,152.035 C267.755036,144.204961 271.4,133.990063 271.4,121.39 C271.4,108.609936 267.755036,98.2600396 260.465,90.34 C253.174964,82.4199604 243.50006,78.46 231.44,78.46 C219.559941,78.46 209.975036,82.3749608 202.685,90.205 C195.394964,98.0350392 191.75,108.339936 191.75,121.12 C191.75,133.900064 195.394964,144.204961 202.685,152.035 C209.975036,159.865039 219.559941,163.78 231.44,163.78 Z M362.79,189.7 C353.609954,189.7 344.565045,187.540022 335.655,183.22 C326.744955,178.899978 319.410029,171.520052 313.65,161.08 L334.17,147.58 C339.210025,154.240033 343.979977,159.054985 348.48,162.025 C352.980022,164.995015 358.829964,166.48 366.03,166.48 C371.790029,166.48 376.244984,164.995015 379.395,162.025 C382.545016,159.054985 384.12,155.410022 384.12,151.09 C384.12,148.209986 383.355008,145.690011 381.825,143.53 C380.294992,141.369989 377.640019,139.345009 373.86,137.455 C370.079981,135.564991 364.680035,133.720009 357.66,131.92 C344.699935,128.499983 334.710035,124.000028 327.69,118.42 C320.669965,112.839972 317.16,104.02006 317.16,91.96 C317.16,84.759964 318.959982,78.1900297 322.56,72.25 C326.160018,66.3099703 331.379966,61.540018 338.22,57.94 C345.060034,54.339982 353.159953,52.54 362.52,52.54 C373.680056,52.54 383.21996,54.834977 391.14,59.425 C399.06004,64.015023 405.269977,69.4599685 409.77,75.76 L388.98,91.15 C386.459987,87.9099838 382.770024,84.7150158 377.91,81.565 C373.049976,78.4149843 366.930037,76.84 359.55,76.84 C355.049977,76.84 350.910019,78.0999874 347.13,80.62 C343.349981,83.1400126 341.46,86.6499775 341.46,91.15 C341.46,95.6500225 343.214982,99.294986 346.725,102.085 C350.235018,104.875014 356.669953,107.349989 366.03,109.51 C381.870079,113.290019 393.119967,118.19497 399.78,124.225 C406.440033,130.25503 409.77,138.21995 409.77,148.12 C409.77,156.760043 407.565022,164.184969 403.155,170.395 C398.744978,176.605031 392.985036,181.374983 385.875,184.705 C378.764964,188.035017 371.070041,189.7 362.79,189.7 Z M545.336844,70.2376423 C546.556297,68.8296487 547.942347,67.3854368 549.495,65.905 C553.365019,62.2149815 557.909974,59.065013 563.13,56.455 C568.350026,53.844987 573.659973,52.54 579.06,52.54 C581.760014,52.54 584.324988,52.7199982 586.755,53.08 C589.185012,53.4400018 591.029994,54.0699955 592.29,54.97 L592.29,79.27 L583.92,79.27 C571.679939,79.27 562.770028,81.1149816 557.19,84.805 C553.985346,86.9242068 551.285354,89.7112935 549.09,93.1662926 L549.09,187 L522.09,187 L522.09,55.24 L542.61,55.24 L545.336844,70.2376423 Z M447.3,80.08 L427.05,80.08 L427.05,55.24 L447.3,55.24 L447.3,42.28 C447.3,32.7399523 448.829985,24.9100306 451.89,18.79 C454.950015,12.6699694 459.269972,8.12501485 464.85,5.155 C470.430028,2.18498515 477.089961,0.7 484.83,0.7 C488.430018,0.7 491.669986,0.9699973 494.55,1.51 C497.430014,2.0500027 500.039988,2.6799964 502.38,3.4 L502.38,28.51 C500.39999,28.1499982 498.465009,27.8350014 496.575,27.565 C494.684991,27.2949987 492.480013,27.16 489.96,27.16 C485.99998,27.16 482.400016,28.4649869 479.16,31.075 C475.919984,33.685013 474.3,38.1399685 474.3,44.44 L474.3,55.24 L499.68,55.24 L499.68,80.08 L474.3,80.08 L474.3,187 L447.3,187 L447.3,80.08 Z M683.6,109.825316 L683.6,98.71 C683.6,93.1299721 681.710019,88.0000234 677.93,83.32 C674.149981,78.6399766 667.490048,76.3 657.95,76.3 C652.909975,76.3 647.37503,76.8849942 641.345,78.055 C635.31497,79.2250058 629.060032,81.2499856 622.58,84.13 L614.48,63.34 C621.860037,59.739982 629.50996,57.040009 637.43,55.24 C645.35004,53.439991 653.089962,52.54 660.65,52.54 C671.990057,52.54 681.349963,54.6099793 688.73,58.75 C696.110037,62.8900207 701.599982,68.4249654 705.2,75.355 C708.800018,82.2850346 710.6,90.0699568 710.6,98.71 L710.6,187 L691.16,187 L688.389388,177.13662 C686.313208,179.282556 683.996747,181.175347 681.44,182.815 C673.159959,188.125027 663.440056,190.78 652.28,190.78 C642.019949,190.78 633.200037,188.980018 625.82,185.38 C618.439963,181.779982 612.815019,176.605034 608.945,169.855 C605.074981,163.104966 603.14,155.050047 603.14,145.69 C603.14,137.049957 605.11998,129.355034 609.08,122.605 C613.04002,115.854966 618.709963,110.50002 626.09,106.54 C633.470037,102.57998 642.19995,100.6 652.28,100.6 C664.880063,100.6 675.004962,103.434972 682.655,109.105 C682.973991,109.341428 683.288991,109.581534 683.6,109.825316 Z M657.14,166.75 C665.06004,166.75 671.449976,164.905018 676.31,161.215 C681.170024,157.524982 683.6,152.350033 683.6,145.69 C683.6,138.849966 681.170024,133.630018 676.31,130.03 C671.449976,126.429982 665.06004,124.63 657.14,124.63 C649.21996,124.63 642.830024,126.429982 637.97,130.03 C633.109976,133.630018 630.68,138.849966 630.68,145.69 C630.68,152.350033 633.109976,157.524982 637.97,161.215 C642.830024,164.905018 649.21996,166.75 657.14,166.75 Z" id="Posfra"></path>
        </g>
    </g>
</svg>